<?xml version="1.0" encoding="UTF-8"?>
<!DOCTYPE svg PUBLIC "-//W3C//DTD SVG 1.1//EN" "http://www.w3.org/Graphics/SVG/1.1/DTD/svg11.dtd">
<!-- Creator: CorelDRAW X7 -->
<svg xmlns="http://www.w3.org/2000/svg" xml:space="preserve" width="9.84252in" height="3.93701in" version="1.1" style="shape-rendering:geometricPrecision; text-rendering:geometricPrecision; image-rendering:optimizeQuality; fill-rule:evenodd; clip-rule:evenodd"
viewBox="0 0 9843 3937"
 xmlns:xlink="http://www.w3.org/1999/xlink">
 <defs>
  <style type="text/css">
   <![CDATA[
    .str0 {stroke:white;stroke-width:31.248}
    .str1 {stroke:black;stroke-width:3}
    .fil2 {fill:none;fill-rule:nonzero}
    .fil0 {fill:black}
    .fil1 {fill:white;fill-rule:nonzero}
   ]]>
  </style>
 </defs>
 <g id="Layer_x0020_1">
  <metadata id="CorelCorpID_0Corel-Layer"/>
  <g id="_464101824">
   <polygon class="fil0 str0" points="2279,1276 1975,1760 2370,2714 2902,2710 "/>
   <path class="fil0 str0" d="M2261 1219l-875 13c-775,49 -853,1417 -27,1466l583 22 950 -1706 -516 4 -692 1221 -295 -3c-239,-92 -195,-454 31,-487l547 -9 294 -521z"/>
  </g>
  <g id="_464097504">
   <path class="fil1 str1" d="M5468 2107c37,0 66,29 66,65 0,36 -29,65 -66,65 -36,0 -66,-29 -66,-65 0,-36 30,-65 66,-65z"/>
   <path class="fil1 str1" d="M5468 2107c37,0 66,29 66,65 0,36 -29,65 -66,65 -36,0 -66,-29 -66,-65 0,-36 30,-65 66,-65z"/>
   <polygon class="fil1 str1" points="6293,1842 6653,1253 6339,1927 "/>
   <polygon class="fil1 str1" points="6270,2036 6163,2233 6065,2233 6222,1944 6072,1663 6171,1663 6300,1919 6472,2233 6373,2233 "/>
   <path class="fil1 str1" d="M3166 2239c-33,0 -61,-9 -85,-27 -23,-18 -41,-45 -53,-80 -12,-34 -19,-76 -19,-125l0 -125c0,-49 6,-91 18,-126 12,-35 30,-61 52,-80 23,-18 51,-27 83,-27 26,0 51,9 73,27 17,14 32,32 45,55l0 -300 89 0 0 798 -89 0 0 -73c-9,21 -22,39 -38,54 -21,19 -46,29 -76,29zm114 -373c0,-24 -4,-45 -11,-62 -7,-17 -17,-30 -30,-39 -13,-9 -29,-14 -48,-14 -30,0 -52,12 -68,35 -17,23 -25,56 -25,97l0 124c0,42 8,73 25,96 16,23 38,34 68,34 19,0 35,-5 48,-14 13,-10 23,-23 30,-41 7,-17 11,-38 11,-63l0 -153z"/>
   <polygon class="fil1 str1" points="3504,1659 3592,1659 3592,2229 3504,2229 "/>
   <path class="fil1 str1" d="M3879 2461c-34,0 -64,-8 -91,-24 -27,-16 -48,-39 -63,-67l0 0 60 -69 0 0c12,20 26,36 42,47 16,11 33,16 51,16 34,0 60,-12 79,-35 18,-24 28,-57 28,-101l0 -72c-9,21 -22,39 -38,54 -21,19 -46,29 -76,29 -33,0 -61,-9 -85,-27 -23,-18 -41,-45 -53,-80 -12,-34 -18,-76 -18,-125l0 -125c0,-49 5,-91 17,-126 12,-35 30,-61 52,-80 23,-18 51,-27 83,-27 26,0 51,9 73,27 18,14 32,32 45,55l0 -72 89 0 0 553c0,52 -8,97 -23,135 -15,37 -38,65 -67,85 -29,19 -64,29 -105,29zm106 -442l0 -153c0,-24 -4,-45 -11,-62 -7,-17 -17,-30 -30,-39 -13,-9 -29,-14 -48,-14 -30,0 -52,12 -68,35 -16,23 -25,56 -25,97l0 124c0,42 9,73 25,96 16,23 38,34 68,34 19,0 35,-5 48,-14 13,-10 23,-23 30,-41 7,-17 11,-38 11,-63z"/>
   <path class="fil1 str1" d="M4847 2237c-27,0 -52,-3 -75,-10 -24,-6 -45,-16 -66,-29 -20,-13 -39,-30 -56,-50l0 0 53 -81 0 0c24,23 48,41 73,52 24,12 48,18 71,18 35,0 62,-7 79,-21 18,-13 27,-34 27,-62 0,-18 -5,-32 -15,-41 -9,-9 -21,-15 -36,-18 -14,-3 -34,-6 -60,-9 -2,0 -4,0 -7,0 -3,0 -5,0 -8,-1 -1,0 -2,0 -3,0 -1,0 -2,0 -4,0 -29,-3 -54,-9 -74,-16 -20,-8 -37,-23 -51,-45 -13,-21 -20,-52 -20,-92 0,-41 7,-74 20,-101 13,-27 32,-47 58,-60 26,-13 58,-20 97,-20 24,0 46,3 67,8 22,6 42,14 62,25 19,10 38,24 56,41l0 0 -54 81 0 0c-22,-18 -45,-32 -67,-41 -22,-9 -43,-14 -64,-14 -30,0 -53,7 -68,20 -15,13 -23,32 -23,58 0,16 5,27 13,35 9,8 20,13 33,15 13,3 32,5 56,7 1,0 3,0 5,0 2,0 4,1 6,1 1,0 2,0 3,0 0,0 1,0 2,1 32,2 59,7 81,16 22,8 41,24 56,47 15,24 23,58 23,103 0,41 -7,75 -21,102 -14,27 -35,47 -63,61 -28,14 -64,20 -106,20z"/>
   <path class="fil1 str1" d="M5115 1659l47 0 0 -166 89 0 0 166 68 0 0 101 -68 0 0 322c0,14 2,24 6,32 5,7 11,11 19,11l43 0 0 107 -51 0c-37,0 -64,-13 -81,-38 -17,-26 -25,-63 -25,-113l0 -321 -47 0 0 -101z"/>
   <path class="fil1 str1" d="M6722 2233c-41,0 -76,-9 -105,-29 -30,-19 -52,-47 -67,-84 -16,-37 -23,-82 -23,-134l0 -94c0,-52 7,-96 23,-132 15,-37 37,-65 67,-84 29,-19 64,-29 105,-29 24,0 46,4 67,11 21,7 39,17 56,31 16,13 30,30 41,49l0 0 -64 73 0 0c-13,-19 -28,-33 -45,-43 -17,-9 -35,-15 -53,-15 -35,0 -61,13 -80,37 -19,24 -28,58 -28,102l0 94c0,45 9,79 28,104 18,25 45,37 80,37 18,0 36,-5 54,-16 17,-11 32,-26 44,-45l0 0 64 78 0 0c-11,19 -25,35 -42,49 -16,13 -35,23 -56,30 -20,7 -42,10 -66,10z"/>
   <path class="fil1 str1" d="M6984 1431l89 0 0 306c12,-24 28,-44 46,-58 22,-19 47,-28 74,-28 49,0 87,20 114,61 27,40 41,97 41,171l0 346 -89 0 0 -345c0,-41 -9,-72 -25,-94 -17,-22 -40,-33 -70,-33 -29,0 -51,10 -67,29 -16,19 -24,46 -24,81l0 362 -89 0 0 -798z"/>
   <path class="fil1 str1" d="M7738 1868c0,-38 -8,-67 -24,-87 -16,-21 -38,-31 -67,-31 -18,0 -36,3 -53,10 -17,7 -33,17 -46,29l-65 -56c17,-26 40,-46 68,-60 28,-15 59,-22 93,-22 38,0 70,8 97,25 26,17 47,41 61,72 14,32 21,70 21,115l0 366 -85 0 0 -44c-6,9 -12,16 -20,23 -11,9 -24,17 -40,22 -15,5 -32,7 -51,7 -55,0 -97,-14 -125,-43 -27,-29 -41,-74 -41,-133 0,-56 13,-99 38,-127 25,-28 63,-42 115,-42l124 0 0 -24zm0 222l0 -108 -124 0c-23,0 -41,6 -52,20 -12,12 -17,32 -17,59 0,29 7,50 23,64 15,14 38,21 69,21 34,0 59,-4 76,-14 17,-9 25,-23 25,-42z"/>
   <path class="fil1 str1" d="M8109 2461c-34,0 -64,-8 -91,-24 -27,-16 -48,-39 -63,-67l0 0 61 -69 0 0c11,20 25,36 41,47 16,11 33,16 51,16 34,0 60,-12 79,-35 19,-24 28,-57 28,-101l0 -72c-9,21 -22,39 -38,54 -21,19 -46,29 -76,29 -33,0 -61,-9 -85,-27 -23,-18 -41,-45 -53,-80 -12,-34 -18,-76 -18,-125l0 -125c0,-49 6,-91 17,-126 12,-35 30,-61 53,-80 22,-18 50,-27 82,-27 26,0 51,9 73,27 18,14 32,32 45,55l0 -72 89 0 0 553c0,52 -8,97 -23,135 -15,37 -38,65 -67,85 -29,19 -64,29 -105,29zm106 -442l0 -153c0,-24 -4,-45 -11,-62 -7,-17 -17,-30 -30,-39 -13,-9 -29,-14 -48,-14 -30,0 -52,12 -68,35 -16,23 -24,56 -24,97l0 124c0,42 8,73 24,96 16,23 38,34 68,34 19,0 35,-5 48,-14 13,-10 23,-23 30,-41 7,-17 11,-38 11,-63z"/>
   <path class="fil1 str1" d="M3542 1450c37,0 66,29 66,65 0,36 -29,65 -66,65 -36,0 -66,-29 -66,-65 0,-36 30,-65 66,-65z"/>
   <g>
    <path class="fil1" d="M5818 2229c-42,0 -78,-10 -107,-30 -30,-19 -52,-49 -68,-87 -15,-38 -23,-84 -23,-138l0 -64c0,-57 7,-105 22,-145 15,-40 37,-70 65,-91 29,-21 63,-31 103,-31 38,0 70,12 97,35 27,24 47,59 61,104 14,45 21,99 21,162l0 37 -285 0c1,45 11,79 30,104 20,25 48,38 84,38 18,0 36,-5 54,-14 17,-9 33,-22 47,-39l0 0 59 74 0 0c-23,27 -48,48 -76,63 -28,15 -56,22 -84,22l0 0zm86 -340l0 0c-3,-47 -12,-83 -29,-108 -16,-26 -38,-39 -66,-39 -33,0 -60,14 -78,42 -17,25 -25,63 -27,107l200 -2z"/>
    <path id="1" class="fil2 str1" d="M5818 2229c-42,0 -78,-10 -107,-30 -30,-19 -52,-49 -68,-87 -15,-38 -23,-84 -23,-138l0 -64c0,-57 7,-105 22,-145 15,-40 37,-70 65,-91 29,-21 63,-31 103,-31 38,0 70,12 97,35 27,24 47,59 61,104 14,45 21,99 21,162l0 37 -285 0c1,45 11,79 30,104 20,25 48,38 84,38 18,0 36,-5 54,-14 17,-9 33,-22 47,-39l0 0 59 74 0 0c-23,27 -48,48 -76,63 -28,15 -56,22 -84,22m86 -340l0 0c-3,-47 -12,-83 -29,-108 -16,-26 -38,-39 -66,-39 -33,0 -60,14 -78,42 -17,25 -25,63 -27,107l200 -2z"/>
   </g>
   <g>
    <path class="fil1" d="M8619 2225c-42,0 -78,-10 -107,-29 -30,-20 -53,-49 -68,-88 -16,-38 -23,-84 -23,-138l0 -64c0,-57 7,-105 22,-145 15,-40 37,-70 65,-91 29,-21 63,-31 103,-31 38,0 70,12 97,35 26,24 47,59 61,104 14,45 21,99 21,162l0 37 -285 0c1,45 11,79 30,104 20,25 48,38 84,38 18,0 36,-5 53,-14 18,-9 34,-22 48,-39l0 0 58 74 0 0c-22,27 -47,48 -75,63 -28,15 -56,22 -84,22l0 0zm86 -340l0 0c-3,-46 -13,-83 -29,-108 -16,-26 -38,-39 -66,-39 -34,0 -60,14 -78,42 -17,25 -26,63 -27,107l200 -2z"/>
    <path id="1" class="fil2 str1" d="M8619 2225c-42,0 -78,-10 -107,-29 -30,-20 -53,-49 -68,-88 -16,-38 -23,-84 -23,-138l0 -64c0,-57 7,-105 22,-145 15,-40 37,-70 65,-91 29,-21 63,-31 103,-31 38,0 70,12 97,35 26,24 47,59 61,104 14,45 21,99 21,162l0 37 -285 0c1,45 11,79 30,104 20,25 48,38 84,38 18,0 36,-5 53,-14 18,-9 34,-22 48,-39l0 0 58 74 0 0c-22,27 -47,48 -75,63 -28,15 -56,22 -84,22m86 -340l0 0c-3,-46 -13,-83 -29,-108 -16,-26 -38,-39 -66,-39 -34,0 -60,14 -78,42 -17,25 -26,63 -27,107l200 -2z"/>
   </g>
   <g>
    <path class="fil1" d="M4365 2229c-42,0 -78,-10 -107,-30 -30,-19 -52,-49 -68,-87 -15,-38 -23,-84 -23,-138l0 -64c0,-57 7,-105 22,-145 15,-40 37,-70 65,-91 29,-21 63,-31 103,-31 38,0 70,12 97,35 27,24 47,59 61,104 14,45 21,99 21,162l0 37 -285 0c1,45 11,79 30,104 20,25 48,38 84,38 18,0 36,-5 54,-14 17,-9 33,-22 47,-39l0 0 59 74 0 0c-23,27 -48,48 -76,63 -28,15 -56,22 -84,22l0 0zm86 -340l0 0c-3,-47 -12,-83 -29,-108 -16,-26 -38,-39 -66,-39 -33,0 -60,14 -78,42 -17,25 -25,63 -27,107l200 -2z"/>
    <path id="1" class="fil2 str1" d="M4365 2229c-42,0 -78,-10 -107,-30 -30,-19 -52,-49 -68,-87 -15,-38 -23,-84 -23,-138l0 -64c0,-57 7,-105 22,-145 15,-40 37,-70 65,-91 29,-21 63,-31 103,-31 38,0 70,12 97,35 27,24 47,59 61,104 14,45 21,99 21,162l0 37 -285 0c1,45 11,79 30,104 20,25 48,38 84,38 18,0 36,-5 54,-14 17,-9 33,-22 47,-39l0 0 59 74 0 0c-23,27 -48,48 -76,63 -28,15 -56,22 -84,22m86 -340l0 0c-3,-47 -12,-83 -29,-108 -16,-26 -38,-39 -66,-39 -33,0 -60,14 -78,42 -17,25 -25,63 -27,107l200 -2z"/>
   </g>
  </g>
 </g>
</svg>
